<?xml version="1.0" encoding="UTF-8"?>
<svg id="Layer_1" xmlns="http://www.w3.org/2000/svg" version="1.1" viewBox="0 0 841.89 595.28">
  <!-- Generator: Adobe Illustrator 29.8.2, SVG Export Plug-In . SVG Version: 2.1.1 Build 3)  -->
  <defs>
    <style>
      .st0, .st1 {
        display: none;
      }

      .st0, .st2 {
        fill: #627ab9;
      }

      .st3 {
        fill: #0b0c12;
      }

      .st1, .st4 {
        fill: #2e3a8f;
      }

      .st5 {
        fill: #1a1b38;
      }

      .st6 {
        fill: #f2f4f6;
      }
    </style>
  </defs>
  <rect class="st4" x="0" y="-1.67" width="841.89" height="595.28"/>
  <path class="st1" d="M727.92,63.23v464.17H127.21V63.23h600.71ZM283.29,132.08c.46-.51,6.27-2.09,5.45-5.11-.3-1.11-7.4-8.65-8.74-8.77-1.81-.16-7.44,4.75-9.09,6.23-.98.87-1.42,2.2-2.43,3.12-5.49,4.99-17.73,14.26-21.5,19.53-2.69,3.77,1.51,4.72,4.36,7.16.91.78,1.29,2.67,2.86,3.1,2.74.75,6.35-4.71,8.85-4.59,3.21.16,7.54,6.78,10.51,5.96,1.85-.51,12.41-12.24,15.15-14.1.33-1.64-7.63-10.1-5.42-12.54ZM560.91,137.68c-.69.85-.69,2.2-1.3,3.21-.93,1.54-3.15,1.87-2.08,4.16.52,1.11,14.46,14.07,15.63,14.38,1.9.5,8.78-6.81,10.38-6.81,2.39,0,5.56,5.43,8.3,4.73.53-.14,7.9-6.61,8.1-7.28.19-.62.25-1.23.15-1.87-.32-2.11-13.59-12.79-16.19-15.16-3.78-3.44-7.69-8.36-11.58-11.36-.59-.46-4.77-3.25-5.07-3.33-3.13-.88-3.13,2.25-4.66,3.79-1.76,1.77-5.89,3.1-4.33,6.41,1.23,2.6,7.17,3.27,4.93,7.6-.45.88-1.85,1.02-2.27,1.54ZM297.14,152.71c-.1-.17-1.49-.47-2.04-1.06-1.32-1.43-2.91-5.01-5.1-4.45-1.45.37-10.07,9.58-11.7,11.3-1.14,1.21-3.15.99-2.57,3.09.09.32,3.51,5.27,3.75,5.5.83.81,2.72,1.62,3.9,1.26,3.18-4.06,10.58-9.44,13.19-13.28.47-.7,1.07-1.53.57-2.36ZM549.61,152.75c-.8,1.3.21,3.45.94,4.65.83,1.36,11.65,11.35,12.75,11.64,2.54.67,2.7-2.47,3.73-3.71,1.22-1.46,4.49-3.19,3.19-5.17-3.7-1.3-10.89-11.55-13.53-12.27-2.83-.78-3.75,2.03-5.12,3.71-.53.64-1.78.85-1.96,1.14ZM326.04,182.19c-2.36-.29-6.45-6.51-8.68-6.08-.81.15-11.4,10.6-11.62,11.38-.56,2.07,1.89,2.51,3.01,3.72.54.58,2.31,3.29,2.53,3.37l-18.95,20.99c-2.6,2.17-5.99,10.66-7.7,12.26-.69.65-1.82.3-2.03.53-.3.33-.79,5.68-.83,6.79-14.46,1.47-31.05,4.16-45.32,4.19-9.3.02-32.67-10.35-41.32-15.33-7.84-4.51-23.4-17.65-31.76-17.8-3.35-.06-7.89,1.42-10.13,3.89-1.67,1.83-1.2,3.58-2.25,5.36-2.27,3.87-4.21.43-6.56.38-1.23-.03-6.36,1.61-7.64,2.23-7.72,3.74-8.3,15.02-1.89,20.19,3.11,2.51,17.27,7.56,17.98,8.55,1.19,1.67-2.47,7.08-2.53,10.04-.15,7.84,7.98,13.09,15.35,12.81,1.03,5.27-1.07,8.98,2.94,13.98,4.34,5.39,11.74,3.85,13.19,5.32.76.77.8,3.21,1.43,4.45,1.01,2.03,4.59,6.42,6.64,7.25s4.49.16,6.13,1.56c1.9,1.63,2.11,6.17,6.37,8.89,5.16,3.29,8.39.48,11.42,1.17,2.19.5,4.98,6.58,11.46,6.72,2.34.05,4.44-1.67,6.44-1.89s3.85.75,6.12.59c1.83-.13,4.14-1.62,5.49-1.3s5.59,4,8.76,4.57c2.63.47,5.26-1.19,7.2-.22,1.02.51,5.61,6.27,7.02,7.24-.14,3.5.12,7.05.9,10.47,3.74,16.46,14.3,32.2,22.94,46.26.77,1.26.81,1.08,2.16,1.72-11.8,11.52-25.02,23.32-36.2,35.05-5.31,5.58-9.25,10.79,2.1,11.73,23.58,1.96,41.85-6.66,60.8-18.59-.39,1.89.63,1.99,1.59,2.92,12.49,12.09,28.41,17.31,43.58,24.76,1.06.52,1.08,1.76,1.69,1.91,1.82.45,4.6-.72,6.54.67,1.65,3.44,7.25,4.98,8.11,6.9,1.12,2.49-2.2,7.56,2.43,13.38,2.69,3.38,7.72,3.94,8.77,5.17.81.95,1.37,4.57,2.59,6.41,1.1,1.67,4.79,4.72,6.71,5.13,2.65.56,5.93-1.35,7.28.42,1.21,1.58.49,11.57,3.57,16.45,5.09,8.08,16.64,6.67,21.26-.97,1.45-2.41,4.01-15.23,4.71-15.67,1.43-.91,7.77,1.05,12.08-1.58,4.99-3.04,4.49-8.41,6.42-10.22.93-.88,5.16-1.29,7.78-4.08,5.06-5.4,2.47-14.24,3.22-15.08.13-.15,2.46-.54,3.79-1.45,1.77-1.21,3.92-4.17,4.56-6.19,2.57-.38,7.08-.18,9.34-.83.96-.28,1.71-1.57,2.81-2.06,8.24-3.7,24.64-11.14,31.2-16.58,1.3-1.08,3.14-4.48,4.41-5.65s3.59-.83,3.54-3.07c18.75,11.09,41.13,20.85,63.52,17.82,3.38-.46,6.75-3.05,4.67-6.51-8.25-8.53-17.34-16.32-25.79-24.62-5.56-5.46-11.01-11.73-16.41-16.95,2.49.46,1.66-.36,2.35-1.46,10.26-16.36,20.39-34.71,21.53-54.24.39-.16,1.23-.03,2.05-.37,3.6-1.51,8.4-7.71,10.57-8.28,1.51-.4,4.58.77,7.25.24,2.35-.47,6.33-3.83,7.93-3.98s2.76,1.26,4.2,1.37c3.07.23,3.72-.74,8.47-.05s8.29,1.16,12.6-1.97c1.22-.88,1.84-3.02,2.91-3.38,1.51-.5,3.55.61,5.39.56,4.11-.12,9.58-3.01,11.61-6.57.76-1.34.68-3.59,1.77-4.45,1.81-1.42,6.77-.86,10.25-4.41,3.11-3.17,3.18-8.9,3.54-9.26.55-.54,9.69.1,14.03-5.18,4.77-5.81,1.11-11.7,2.41-13.46.49-.66,6.57-1.16,8.52-1.97,3.74-1.54,7.34-7.36,7.12-11.3-.15-2.62-4.4-8.65-3.22-10,.32-.37,7.8-2.87,9.31-3.6,4.99-2.41,11.95-5.13,13.47-10.88,2.2-8.34-4.41-15.26-12.77-15.8-2.13-.14-5.89,1.37-7.32.35-1.03-.73-.39-3.13-1.01-4.51-1.58-3.51-8.77-6.43-12.61-6.23-6.56.35-27.07,16.09-34.32,20.11-9.56,5.3-16.34,6.8-26.35,9.96-1.96.62-3.65,2.42-5.56,2.81-13.32,2.7-37.74-3.18-52.89-3.28-.47-2.05-1.33-4.55-2.19-6.45-4.2-9.27-20.31-28.89-28.72-34.81,1.64-.01,7.14-5.54,6.98-6.44-4.22-3.87-7.87-8.69-12.24-12.15l-1.04.34-6.33,6.56c-.76-1.13-20.91-12.24-23.72-13.58-48.96-23.35-109.52-21.81-156.62,4.51-2.96,1.66-11.82,8.68-14.28,8.38ZM290.67,164.76c-1.55,1.62-5.44,2.91-4.57,5.94.13.45,5.26,5.7,5.83,6.03,1.63.94,1.99.92,3.59,0,.66-.38,10.5-10.01,10.89-10.66.44-.73.8-1.09.7-2.06-.05-.46-4.35-5.84-4.9-6.28-4.32-3.43-8.82,4.17-11.55,7.03ZM545.34,156.84c-.12.07-.7,1.68-1.45,2.35-2.1,1.89-5.19,2.58-4.14,6.01.24.77,10.53,11.01,11.44,11.54,1.08.63,1.21.77,2.5.37.6-.19,5.68-4.78,5.98-5.22.4-.6.44-.91.25-1.6-.64-2.33-10.98-9.41-12.17-12.89-.6-.58-1.69-.96-2.42-.55ZM308.98,167.16c-.79.22-11.42,10.62-11.64,11.4-.55,1.92,4.14,6.83,5.27,7.02,1.73.29,11.74-10.24,13.55-12.08-1.63-2-4.31-7.13-7.18-6.34ZM531.42,171.39c-.8.94-1.12,2.05-.6,3.21.34.74,10.55,11.53,11.36,11.67,2.28-1.63,8.52-5.81,6.62-8.58-.7-1.01-10.36-10.25-11.09-10.5-2.73-.94-2.24,1.02-3.65,2.32-.8.73-2.22,1.38-2.64,1.88Z"/>
  <g>
    <circle class="st2" cx="420.16" cy="303.85" r="156.71"/>
    <path class="st0" d="M520.66,182.88c3.97,5.9,6.88,7.63,12.65,11.69,8.4,5.92,24.52,25.55,28.72,34.81.86,1.9,1.72,4.4,2.19,6.45-.84,0-1.91-.72-3.09-.64-7.21.45-16.77,10.19-23.41,11.49-13.62,2.68-29.87,3.07-43.75,4.97l21.58-21.91c2.75-.75,7.16,5.24,9.3,7.17.86.77,2.07.76,2.61,1.21,1.72,1.43,1.55,5.27,5.71,3.76.75-2.22,10.72-11.08,10.72-11.88,0-1.85-19.28-16.77-20.29-20.1-1.69-5.6,5.95-7.13,7.62-11.54l-.68-1.42c-3.23-1.06-9.95-10.42-12.38-10.65-3.07-.29-7.22,8.17-11.55,5.87l-17.19-16.19c-1.69-1.09-3.91-1-5.7,0-1.35.76-7.41,7.95-7.41,9.32,0,1.92,4.7,6.15,6.38,7.58,2.23,1.91,5.61,1.75,3.89,5.84l-43.92,41.25c-.06-.1-1.32-.23-2.12-.99-5.66-5.32-4.13-5.62-5.93-12.11-2.4-8.68-7.96-14.38-17.73-10.42-4.76,1.93-6.29,7-7.06,11.66-.42,2.57.26,5.41-.5,7.77-.71,2.2-5.13,5.12-5.31,5.46l-43.91-43.33c-1.61-3.23,2.24-3.84,4.2-5.51,2.08-1.78,6.26-5.18,6.07-7.89-.04-.59-7.17-7.33-8.12-8.63-1.03-.83-2.26-.8-3.49-.64-3.28.43-8,7.22-10.6,9.61-1.3,1.19-8.3,7.15-9.29,7.44-4.1,1.2-7.89-6.4-10.92-5.98-1.62.23-11.56,9.83-11.78,11.3-.68,4.53,8.99,7.24,7.46,12.02-1.39,4.37-20.11,17.36-20.11,20.26l9.46,11.39c.59.57,1.31.76,2.12.68,2.62-.26,9.41-10.56,12.64-12.45.92-.54,1.57-.98,2.7-.55l21.58,21.91c-13.18-1.98-29.04-1.82-42.19-5.13-10.54-2.65-16.28-11.89-28.07-10.69.04-1.11.53-6.47.83-6.79.21-.23,1.33.12,2.03-.53,1.71-1.6,5.1-10.09,7.7-12.26l18.95-20.99c1.05.38,2.87-.06,3.9-.65,1.33-.76,7.56-7.14,9.26-8.81.95-.92,1.98-1.03,1.59-2.92,2.46.31,11.31-6.72,14.28-8.38,47.1-26.32,107.66-27.87,156.62-4.51,2.81,1.34,22.96,12.45,23.72,13.58Z"/>
    <path class="st3" d="M323.23,356.85c.72-.78,4.58-4.73,4.92-4.81,1.08-.29,3.09.02,4.23.32,10.29,2.73,26.8,10.81,36.52,15.49l-7.73,9.29c-3.13,2.06-1.89-4.49-5.52-2.29-1.63.99-3.76,12.56-5.39,12.95s-2.07-2.66-2.81-3.43c-2.87-2.97-2.63,2.19-3.34,4.27-.58,1.7-3.69,10.15-4.37,10.85-3.26,3.4-2.97-4.71-5.62-4.13-.72.16-3.29,10.02-4.97,12.33-2.82,3.86-6.53,4.65-10.14,6.92-18.95,11.94-37.22,20.55-60.8,18.59-11.35-.94-7.41-6.16-2.1-11.73,11.18-11.73,24.4-23.54,36.2-35.05,7.62-7.44,15.74-14.78,23.19-22.69"/>
    <path class="st3" d="M517.85,352.04c1.59-.06,1.88.96,2.68,1.84,10.12,11.15,21.82,20.87,32.45,31.16,5.39,5.22,10.85,11.49,16.41,16.95,8.45,8.3,17.54,16.09,25.79,24.62,2.08,3.46-1.3,6.05-4.67,6.51-22.39,3.03-44.77-6.72-63.52-17.82-5.7-3.37-9.16-6.08-11.8-12.17-.93-2.15-.81-6.77-3.31-7.76-1.54-.61-1.46,3.17-2.74,4.18-3.18,2.5-2.59-1.85-3.42-4.33-.48-1.42-3.6-10.46-4.08-10.78-2.87-1.92-3.17,2.98-5.19,3.36-1.68-.4-2.33-11.19-6.63-12.77-3.69-1.36-1.44,4.02-4.99,2.14-.42-.22-5.78-6.85-5.98-7.27-.58-1.24.06-2.26.38-3.41,8.55-3.59,32.39-10.19,38.64-14.44Z"/>
    <g>
      <path class="st6" d="M281.78,235.14c11.79-1.19,17.53,8.04,28.07,10.69,13.15,3.31,29,3.14,42.19,5.13,12.27,1.84,24.92,5.4,37.6,6.18,3.85.24,10.4.89,12.1-3.27,1.17-2.84,1.1-10.29,2.29-12.54.18-.34,4.6-3.26,5.31-5.46.76-2.35.07-5.2.5-7.77.76-4.66,2.29-9.73,7.06-11.66,9.77-3.96,15.33,1.74,17.73,10.42,1.8,6.49.27,6.79,5.93,12.11.81.76,2.06.89,2.12.99.25.39,2.45,7.77,2.63,8.77.85,4.71-1.35,7.89,5.62,8.95,4.57.69,22.82-1.89,28.55-2.67,4.7-.64,10.14-2.76,14.49-3.36,13.89-1.9,30.13-2.29,43.75-4.97,6.64-1.31,16.2-11.04,23.41-11.49,1.19-.07,2.25.64,3.09.64,15.14.1,39.57,5.98,52.89,3.28,1.91-.39,3.6-2.19,5.56-2.81,10.02-3.16,16.79-4.67,26.35-9.96,7.25-4.01,27.76-19.76,34.32-20.11,3.84-.2,11.03,2.72,12.61,6.23.62,1.38-.01,3.78,1.01,4.51,1.44,1.02,5.2-.49,7.32-.35,8.36.54,14.97,7.46,12.77,15.8-1.52,5.75-8.48,8.47-13.47,10.88-1.51.73-8.99,3.23-9.31,3.6-1.18,1.36,3.07,7.38,3.22,10,.23,3.93-3.38,9.75-7.12,11.3-1.95.81-8.03,1.31-8.52,1.97-1.3,1.76,2.36,7.65-2.41,13.46-4.34,5.28-13.48,4.65-14.03,5.18-.36.36-.44,6.09-3.54,9.26-3.48,3.55-8.45,2.99-10.25,4.41-1.1.86-1.01,3.11-1.77,4.45-2.03,3.56-7.5,6.46-11.61,6.57-1.84.05-3.87-1.06-5.39-.56-1.07.35-1.7,2.49-2.91,3.38-4.31,3.13-7.77,2.68-12.6,1.97s-5.41.28-8.47.05c-1.45-.11-2.56-1.52-4.2-1.37s-5.58,3.51-7.93,3.98c-2.67.54-5.74-.63-7.25-.24-2.16.57-6.97,6.77-10.57,8.28-.82.34-1.66.21-2.05.37-19.19,7.69-38.8,15.44-58.52,21.33-.83.25-.44,1.32-.5,1.36-6.25,4.25-30.09,10.85-38.64,14.44-.78.33-2.31,2.52-4.2,3.11-8.16,2.58-14.52.9-22.5-1.05-.32,3.79-.05,6.38,1.59,9.79,5.51,11.49,18.91,27.37,20.84,39.43.39,2.42.52,6.19.75,8.89.39,4.51,1.28,12.84,0,16.84-.64,2.02-2.79,4.98-4.56,6.19-1.33.91-3.66,1.3-3.79,1.45-.75.84,1.84,9.68-3.22,15.08-2.61,2.79-6.85,3.2-7.78,4.08-1.93,1.81-1.43,7.18-6.42,10.22-4.31,2.63-10.65.67-12.08,1.58-.7.44-3.26,13.27-4.71,15.67-4.62,7.64-16.17,9.06-21.26.97-3.07-4.89-2.36-14.88-3.57-16.45-1.36-1.77-4.63.14-7.28-.42-1.92-.41-5.61-3.46-6.71-5.13-1.22-1.84-1.77-5.46-2.59-6.41-1.05-1.23-6.08-1.79-8.77-5.17-4.63-5.82-1.31-10.89-2.43-13.38-.86-1.92-6.45-3.47-8.11-6.9-1.25-2.59-.88-11.43-.7-14.78.26-4.68,1.22-14.53,2.58-18.79,2.68-8.42,14.24-24.1,18.86-33.12,1.31-2.55,3.94-6.66,1.81-9.36-1.89-2.39-5.22.46-7.62.92-7.08,1.37-12.01,1.21-18.44-1.89-9.72-4.69-26.22-12.77-36.52-15.49-1.14-.3-3.15-.61-4.23-.32-10.11-6.08-22.1-9.04-33.14-13.29-7.46-2.87-14.82-6.31-22.33-9.09-1.89-.7-4.37-.32-6.35-1.69-1.41-.97-6-6.73-7.02-7.24-1.94-.97-4.57.69-7.2.22-3.17-.57-7.44-4.25-8.76-4.57s-3.66,1.17-5.49,1.3c-2.27.16-4.14-.8-6.12-.59s-4.09,1.94-6.44,1.89c-6.48-.14-9.26-6.21-11.46-6.72-3.03-.69-6.26,2.11-11.42-1.17-4.26-2.72-4.47-7.26-6.37-8.89-1.64-1.41-4.16-.77-6.13-1.56s-5.63-5.22-6.64-7.25c-.62-1.24-.67-3.68-1.43-4.45-1.44-1.47-8.85.07-13.19-5.32-4.02-4.99-1.91-8.71-2.94-13.98-7.37.28-15.5-4.97-15.35-12.81.06-2.96,3.72-8.37,2.53-10.04-.71-.99-14.86-6.04-17.98-8.55-6.41-5.17-5.84-16.44,1.89-20.19,1.28-.62,6.41-2.25,7.64-2.23,2.35.05,4.29,3.49,6.56-.38,1.05-1.79.58-3.53,2.25-5.36,2.24-2.46,6.78-3.95,10.13-3.89,8.36.15,23.92,13.28,31.76,17.8,8.64,4.97,32.01,15.35,41.32,15.33,14.27-.03,30.85-2.72,45.32-4.19Z"/>
      <path class="st5" d="M444.78,452.44"/>
      <path class="st5" d="M443.34,458.94c0,4.09.55,8.01.73,12.06-1.63.24-2.18-.26-3.13-1.4-1.34-1.61-4.19-7.48-5.45-9.82-.84-1.56-.08-4.08-3.06-1.89-3.73,2.75-5.9,25.89-7.46,31.21-1.39,1.62-4.08,2.91-4.75.09-1.85-7.77.33-16.04-1.63-23.84-.31-1.23-3.55-8.45-4.03-8.78-.67-.46-1.29.25-1.72.71-1.33,1.42-6.53,14.53-9.51,11.66-.37-.35,1.48-7.85,1.44-9.99s-2.08-17.68-2.86-18.2c-.89-.59-2.06.11-2.64,1.18-2.21,4.08,0,16.42-7.18,16.01.13-3.98,4.71-26.48,2.1-28.19-3.09-2.01-6.74,9.65-9.47,9.65-3.45,0-.58-5.5-.43-7.32.48-5.86-.18-11.92,1.63-17.66l22.32-39.41c-.59-6.09-1.13-12.51-3.92-18.09-5.79-11.55-8.65-1.23-16.29,1.12-10.87,3.34-23.02-5-33.2-9.07-26.79-10.7-53.87-20.82-80.97-30.78-3.89-1.89-9.4-11.27-12.25-12.11-3.22-.94-3.58,1.41-5.58,2.54-4.99,2.83-4.75-7.04-7.74-8.05-5.11-1.72-10.14,5.21-11.47,4.01-.51-.46,2.15-3.61,2.06-5.19-.4-6.9-9.2,4.99-10.81,5.91-5.62,3.22-2.09-2.95-1.85-5.25.23-2.16.67-9.05-1.81-9.84-2.76-.87-3.13,1.98-4.78,3.39-1.02.87-7.65,6.28-8.13,6.49-1.14.5-2.3.41-3.5.35-2.68-2.51,11.39-8.64,7.77-13.45-1.38-1.83-4.48-2.59-6.73-2.39-3.26.29-11.65,5.95-13.27,5.5-1.5-.42-1.5-2.61-.43-3.76s10.73-5.89,11.16-6.6c2.95-4.93-11.43-4.17-13.64-4.08-2.36.1-14.51,2.45-15.11.27-.17-.64-.2-1.93.44-2.38,1.38-.97,12.85-1.63,15.78-2.3,1.55-.36,9.38-2.6,8.07-4.52-.33-.49-9.84-5.19-10.74-5.36-3.33-.62-7.23,2.03-10.31,1.89-.88-.04-16.05-4.44-16.8-4.88-1.48-.87-1.24-1.74-1.17-3.33l32.32.68-.33-2.08-52.39-24.37c-.93-.68-.99-1.48.02-2.1,2.27-1.4,44.3,16.78,50.59,17.54.4-1.77-.31-1.74-1.16-2.64-6.77-7.13-23-14.61-28.74-21.38-.79-.93-1.24-1.48-1-2.79h2.44c15.98,10.99,31,21.27,49.51,27.88,12.35,4.41,19.78,5.98,33.4,5.11,4.44-.28,9.02-1.64,13.37-2.05,5.32-.49,21.32-2.77,25.25-2.04,2.27.42,10.19,6.24,13.25,7.65,13.65,6.27,32.71,4.69,47.25,8.76,16.15,0,35.53,6.75,51.24,6.29,3.87-.11,3.33-1.48,5.05-1.98,3.84-1.11,4.24,1.56,7.26-3.21,4.05-6.4,2.04-10.46,3.64-15.7,1.16-3.79,7.35-5.37,7.52-12.59.03-1.48-2.23-8.39,1.82-7.14,1.7.52.67,8.21,2.17,10.95,1.16,2.13,7.47,7.35,7.89,8.78s-.09,3.14.21,4.61c.79,3.81,1.91,9.22,4.26,12.34,2.18,2.9,3.12,1.23,5.72,1.96,1.2.34,1.71,1.85,2.61,2.26,1.46.67,27.79-2.59,31.92-3.12,21.75-2.81,43.93-6.89,65.93-9.74l17.87-10.03c16.78.02,41.96,7.61,57.84,3.68,3.25-.8,9.7-3.2,13.08-4.39,16.49-5.84,29.38-14.41,43.74-23.89,1.3-.86,7.2-6.37,8.49-5.09.49.49-.25,3.33-1.37,3.81l-29.32,21.84c-1.22,1.4-1.01,2.58.49,3.63l47.58-18.85c1.87-.46,2.92,1.16,1.97,2.66l-52.37,26.1h31.62c-.18.83.53,2.25-.45,2.78-.79.43-16.16,3.79-17.58,3.85-2.4.09-5.97-1.17-8.16-.97-.72.06-12.06,4.15-12.45,4.68-1.6,2.12,9.14,5.08,10.37,5.31,2.26.43,15.46.51,14.88,3.88l-1.87,1.67c-5.02.46-23.77-3.04-26.91-.22-3.22,2.88,8.41,7.97,10.2,9.29,2.58,1.91,2.16,3.89-1.24,3.31s-8.22-5.07-12.2-5.36c-2.97-.22-8.13,1.96-7.01,5.5.99,3.11,14.17,11.2,4.65,10.64-1.6-1.29-11.46-10.85-12.29-10.66-3.26.75-1.05,12.01-1.03,14.13.06,8.29-10.9-8.25-13.38-6.56-2.09,3.26,3.13,5.83.33,8.25-3.29-1.18-3.36-4.67-7.19-5.36-6.59-1.18-4.45,6.91-7.92,8.46s-4.29-4.03-9.36-2.3c-1.14.39-7.77,9.71-11.21,11.71-34.78,13.11-69.8,25.73-103.73,40.81-4.68,1.04-9.5-.47-13.61-2.57-6.22-3.18-7.31-9-12.3-.78-3.44,5.67-3.36,13.21-4.91,19.64l22.84,40.27c1.94,7.31.93,15.08,2.34,22.5-.62,6.22-7.93-7.13-8.83-7.89s-1.18-.91-2.43-.71l2.74,27.21c-1.09,3.5-3.34,2.6-4.51-.38-1.64-4.17-2-9.71-3.85-14.45-.35-.9.35-2.7-1.75-2.76-1.33-.04-.36,2.6-.36,2.76.03,1.59.05,3.22,0,4.81"/>
    </g>
    <g>
      <path class="st3" d="M563.18,136.14c2.24-4.33-4.79-4.73-4.93-7.6-.16-3.29,5.81-9.29,8.99-10.19.29-.08,4.48,2.87,5.07,3.33,3.89,3,27.46,24.4,27.78,26.52.1.65.04,1.25-.15,1.87-.2.66-7.57,7.14-8.1,7.28-2.74.7-5.91-4.72-8.3-4.73-1.6,0-8.48,7.31-10.38,6.81-1.16-.31-15.11-13.26-15.63-14.38"/>
      <path class="st3" d="M279.99,118.2c1.34.12,8.44,7.65,8.74,8.77.82,3.02-5.96,6.1-6.43,6.61-2.21,2.43,6.72,9.39,6.4,11.03-2.75,1.86-13.3,13.59-15.15,14.1-2.97.81-7.31-5.8-10.51-5.96-2.5-.12-6.12,5.34-8.85,4.59-1.57-.43-9.91-6.49-7.22-10.26"/>
      <path class="st3" d="M300.53,157.36c.54.43,6.58,6.64,6.58,6.64l.56.65-14.25,13.26s-7.19-6.77-7.32-7.22"/>
      <path class="st3" d="M562.08,168.58l-13.88-13.67s2.84-2.66,3.36-3.3c1.37-1.67,4.62-4.48,4.62-4.48,0,0,10.66,10.72,14.13,13.69"/>
      <path class="st3" d="M297.77,155.04s-11.13,10.76-14.57,13.76c-1.22-1.5-7.22-7.27-7.22-7.27l14.28-14.4"/>
      <polyline class="st3" points="559.93 169.58 551.9 177.43 538.83 164.54 545.86 157.03"/>
      <path class="st3" d="M312.86,195.25l-7.67-7.24,13.06-12.36s6.09,6.46,7.77,7.93"/>
      <path class="st3" d="M533.31,194.57c-5.77-4.06-12.65-11.69-12.65-11.69l6.87-7.64c4.37,3.46,8.54,8.35,12.76,12.22-3.17,3.94-5.2,5.47-6.98,7.11Z"/>
      <path class="st3" d="M536.43,166.44l13.39,12.17s-5.29,5.88-7.56,7.52c-.81-.14-12.66-12.35-12.66-12.35"/>
      <path class="st3" d="M309.56,166.61s4.96,4.89,6.6,6.89c-1.81,1.84-13.55,12.08-13.55,12.08l-6.41-6.33,13.36-12.63Z"/>
      <path class="st3" d="M515.54,229.74c-5.76,4.67-21.58,21.91-21.58,21.91-4.35.59-9.79,2.72-14.49,3.36-5.73.78-23.98,3.37-28.55,2.67-6.98-1.06-4.78-4.23-5.62-8.95-.18-1-2.38-8.38-2.63-8.77l43.92-41.25c1.72-4.09-10.27-11.49-10.27-13.42,0-1.37,6.06-8.56,7.41-9.32,1.79-1,4.01-1.09,5.7,0l17.19,16.19c4.32,2.3,8.48-6.16,11.55-5.87,2.43.23,13.06,12.07,13.06,12.07-1.67,4.42-9.32,5.94-7.62,11.54,1,3.32,20.29,18.25,20.29,20.1,0,.79-8.52,11.05-10.72,11.88"/>
      <path class="st3" d="M352.04,250.96l-21.58-21.91c-1.13-.42-1.78.02-2.7.55-3.23,1.89-10.02,12.19-12.64,12.45-.81.08-1.54-.11-2.12-.68l-9.46-11.39c0-2.9,18.71-15.89,20.11-20.26,1.53-4.78-8.14-7.49-7.46-12.02.22-1.47,10.16-11.07,11.78-11.3,3.04-.43,6.82,7.18,10.92,5.98.98-.29,7.99-6.25,9.29-7.44,2.6-2.39,7.32-9.18,10.6-9.61,1.23-.16,2.46-.19,3.49.64.95,1.29,8.08,8.04,8.12,8.63.19,2.71-11.88,10.17-10.27,13.4l43.91,43.33c-1.19,2.25-1.13,9.7-2.29,12.54-1.71,4.15-8.25,3.51-12.1,3.27-12.68-.78-25.33-4.34-37.6-6.18Z"/>
    </g>
  </g>
</svg>