<?xml version="1.0" encoding="UTF-8"?>
<svg id="Layer_1" xmlns="http://www.w3.org/2000/svg" version="1.1" viewBox="0 0 841.89 595.28">
  <!-- Generator: Adobe Illustrator 29.8.2, SVG Export Plug-In . SVG Version: 2.1.1 Build 3)  -->
  <defs>
    <style>
      .st0 {
        fill: #ed1c24;
      }

      .st1 {
        fill: #f9f8e2;
      }

      .st2 {
        fill: #fdca95;
      }

      .st2, .st3 {
        display: none;
      }

      .st3, .st4 {
        fill: #080808;
      }
    </style>
  </defs>
  <rect class="st0" x="2.31" y="1.36" width="839.58" height="593.92"/>
  <path class="st4" d="M165.45,297.3c80.6-24.09,125.3-64.96,158.75-92.11,41.39-33.6,74.5-56.97,93.47-76.94,9.12-9.6,57.11,76.81,73.2,93.69,22.51,23.61,7.56-26.49,54.89,3.22,77.32,48.54,134.15,56.69,131.96,72.15-1.18,8.35-18.96,10.7-29.22,14.53-117.35,43.83-174.81,119.79-226.41,157.28-4.49,3.27-3.7-3.45-20.31-21.91-27.55-30.61-53.9-51.6-72.23-64.76"/>
  <path class="st2" d="M800.39,313.69c-37.28-16.82-74.75-32.6-110.66-52.37-4.73-2.6-23.94-12.81-26.33-15.67-2.64-3.15-6.89-17.04-8.25-21.75-3.1-10.67-6.85-26.34-7.72-37.28-.81-10.18,1.18-22.19.03-32.03-.14-1.2-.2-3.04-1.6-3.44-1.96-.57-16.94,11.7-20.13,13.8-11.72,7.7-33.09,19.17-46.48,22.5-2.99.74-5.62.53-7.99-.33,2.33,1.36,3.62,4.11,8.05.56-1,1-2,3-2,3,28,21,56,39,86,55-30-16-58-34-86-55,0,0,1-2,2-3-4.44,3.55-5.73.8-8.05-.56-.2-.07-.41-.14-.61-.23-7.27-3.01-12.11-12.06-17.7-17.77-17.54-17.9-25.44-19.69-46.4-30.59-17.06-8.87-46.46-38.78-61.52-52.97-5.58-5.26-10.82-10.89-16.61-15.94h-2.96c-21.76,21.29-44.05,42.1-67.54,61.5-15.39,12.72-31.43,25.67-47.53,37.46-3.48,2.55-26.04,18.88-27.68,19.31-.28.07-.56.12-.85.18-24.93,22.75-55.73,34.74-83.57,56.61-2,1-5,1-7,1,2,0,5,0,7-1,27.84-21.87,58.64-33.87,83.57-56.61-2.76.51-5.53.04-8.23-.61-20.25-4.86-44.66-21.42-61.13-33.85-3.15-2.38-4.61-2.16-5.09,1.99-1.76,15.1.59,30.49-2.19,46.81-1.35,7.9-9.28,38.52-14.1,43.39-5.5,5.56-31.28,18.23-39.76,22.73-32.03,17.02-65.09,32.41-98.88,45.61-.09,1.1-.16,2.01.48,3,1.45,2.24,37.42,16.11,43.21,18.78,33.7,15.55,67,33.2,98.96,52.02,7.17,4.22,40.98,23.69,43.52,28.47,2.31,4.33,2.74,11.37,4.82,15.92.16.35,3.3,5.38,3.91,6.34,9.54,14.9,35.03,28.79,52.02,32.97,7.6,1.87,21.44,1.76,27.4,4.6,9.22,4.38,37.51,29.28,46.64,37.35,5.64,4.98,11.01,10.28,16.03,14.94,4.81,4.46,33.98,34.33,36.48,34.6,2.04.21,3.44-.96,4.96-2.03,8.64-6.1,20.01-20.64,28.48-28.5,34.61-32.13,73.96-62.53,112.91-89.06,1.85-1.26,8.04-7.11,8.78-7.3,6.33-1.67,6.49,16.4,6.34,20.44-.24,6.47-4.01,21.53-6.56,27.43-4.72,10.93-28.77,23.52-39.94,27.06-2.91.92-22.96,3.52-14.04,6.96,12.21,4.7,41.33,1.55,52.83-5.16,29.22-17.04,36.83-48.03,34.64-80.31-.33-4.85-2.95-9.91-1.96-14.99,1.28-6.57,24.24-15.51,30.28-19.71,19-13.23,35.22-21.67,55.79-32.19,30.04-15.37,61.01-30.52,92.19-43.79,2.98-1.27,11.02-2.18,11.72-6.29.36-2.13-.79-1.4-2.04-1.96ZM513.07,187.29c6.95-2.32,14.56,6.21,16.68,12.04,3.18,8.76,4.7,18.59-7.27,10.27-3.62-2.52-10.29-10.62-10.97-15.02-.3-1.91-.79-6.51,1.57-7.3ZM753.36,316.59c-50.24,24.28-99.24,50.85-146.43,80.58-3.78-.67-3.74-4.99-5.52-7.52-23.77-33.72-60.54-58-103.66-57.16-4,.08-6.26,1.53-5.09,5.9,1.69,6.31,9.49,15.71,11.3,22.72,3.58,3.29,9.88,3.87,13.5,5.5,23.92,10.77,45.85,26.67,58.9,49.87-.37,2.23-28,19.57-32.17,22.63-31.61,23.17-65.52,50.18-94.76,76.49-3.56,3.2-18.94,19.99-21.72,20.38l-66.25-57.35c.92-1.44,1.95-1.4,3.45-1.56,8.4-.93,18.41.78,27.03.03,60.57-5.26,143.36-49.59,98.89-120.85-12.85-20.59-37.02-36.19-46.58-58.41-9.82-22.82,1.94-52.67,20.69-67.69,3.59-2.87,21.35-11.89,22.03-12.97,2.96-4.69-8.2-10.08-11.75-11.31-48.17-16.65-137.2,17.69-128.68,79.68,3.03,22.01,55.46,67.12,71.95,85.06,10.28,11.18,16.42,16.23,14.83,32.89-3.39,35.35-56.81,35.98-83.35,36.62-19.62.48-41.79-.46-57.97-13-4.54-3.52-12.29-12.07-11.15-18.02,3.59-18.77,33.54-30.29,49.56-35.53,16.51-3.79,32.35-9.07,49.11-11.88,3.24-4.48-.67-6.16-2.03-8.31-5.83-9.18-9.22-19.11-21.41-18.13-11.48.92-28.54,6.89-39.78,10.21-23.79,7.01-57.47,16.37-71.63,38.36-2.01,3.12-1.53,7.36-5.67,7.38-3.71.02-13.73-8.17-17.62-10.48-36.03-21.36-73.37-41.86-111.19-59.79-2.62-1.24-9.17-1.55-9.71-5.29l71.9-36.11c79.31-45.01,155.81-95.57,224.09-155.86,9.91-8.75,19.34-18.25,28.7-27.53,5.22-1.34,5.33,2.93,7.77,5.07,8.7,7.63,17.05,15.58,25.86,23.59,2.77,2.52,8.21,3.91,7.64,8.35-4.46.24-9.03-.33-13.48.01-39.26,3.06-72.69,14.25-102.51,40.47-28.81,25.33-37.6,49.32-28.73,87.75,1.17,5.09,4.69,10.88,6.85,15.63,7.99,1.61,5.98-11.44,7.54-17.73,10.38-42.01,69.52-61.31,107.85-63.13,25.27-1.2,54.26,9.56,75.83,22.14,10.39,6.06,28.23,21.32,38.21,24.77,2.96,1.02,7.5,1.34,9.99-.88.75-.67,4.44-9.98,4.44-10.55,0-3.88-.78-14.19,0-17,1.29-4.63,5.86,1.87,6.75,2.51,47.51,34.19,109.44,67.32,162.01,92.69,2.91,1.41,9.1,2.92,11.58,4.27,1.27.69.61,1.23.6,2.46Z"/>
  <path class="st3" d="M572.43,214.18c1.29-4.63,5.86,1.87,6.75,2.51,47.51,34.19,109.44,67.32,162.01,92.69,2.91,1.41,9.1,2.92,11.58,4.27,1.27.69.61,1.23.6,2.46-50.24,24.28-99.24,50.85-146.43,80.58-3.78-.67-3.74-4.99-5.52-7.52-23.77-33.72-60.54-58-103.66-57.16-4,.08-6.26,1.53-5.09,5.9,1.69,6.31,9.49,15.71,11.3,22.72,3.58,3.29,9.88,3.87,13.5,5.5,23.92,10.77,45.85,26.67,58.9,49.87-.37,2.23-28,19.57-32.17,22.63-31.61,23.17-65.52,50.18-94.76,76.49-3.56,3.2-18.94,19.99-21.72,20.38l-66.25-57.35c.92-1.44,1.95-1.4,3.45-1.56,8.4-.93,18.41.78,27.03.03,60.57-5.26,143.36-49.59,98.89-120.85-12.85-20.59-37.02-36.19-46.58-58.41s1.94-52.67,20.69-67.69c3.59-2.87,21.35-11.89,22.03-12.97,2.96-4.69-8.2-10.08-11.75-11.31-48.17-16.65-137.2,17.69-128.68,79.68,3.03,22.01,55.46,67.12,71.95,85.06,10.28,11.18,16.42,16.23,14.83,32.89-3.39,35.35-56.81,35.98-83.35,36.62-19.62.48-41.79-.46-57.97-13-4.54-3.52-12.29-12.07-11.15-18.02,3.59-18.77,33.54-30.29,49.56-35.53,16.51-3.79,32.35-9.07,49.11-11.88,3.24-4.48-.67-6.16-2.03-8.31-5.83-9.18-9.22-19.11-21.41-18.13-11.48.92-28.54,6.89-39.78,10.21-23.79,7.01-57.47,16.37-71.63,38.36-2.01,3.12-1.53,7.36-5.67,7.38-3.71.02-13.73-8.17-17.62-10.48-36.03-21.36-73.37-41.86-111.19-59.79-2.62-1.24-9.17-1.55-9.71-5.29l71.9-36.11c79.31-45.01,155.81-95.57,224.09-155.86,9.91-8.75,19.34-18.25,28.7-27.53,5.22-1.34,5.33,2.93,7.77,5.07,8.7,7.63,17.05,15.58,25.86,23.59,2.77,2.52,8.21,3.91,7.64,8.35-4.46.24-9.03-.33-13.48.01-39.26,3.06-72.69,14.25-102.51,40.47-28.81,25.33-37.6,49.32-28.73,87.75,1.17,5.09,4.69,10.88,6.85,15.63,7.99,1.61,5.98-11.44,7.54-17.73,10.38-42.01,69.52-61.31,107.85-63.13,25.27-1.2,54.26,9.56,75.83,22.14,10.39,6.06,28.23,21.32,38.21,24.77,2.96,1.02,7.5,1.34,9.99-.88.75-.67,4.44-9.98,4.44-10.55,0-3.88-.78-14.19,0-17Z"/>
  <path class="st1" d="M694.49,295.66c-55.73-19.43-167.48-93.64-167.37-92.44,1.7,1-3.92-2.92-4.07-2.98-5.31-2.2-5.22-6-9.31-10.17-12.81-13.07-18.58-14.39-33.89-22.35-12.46-6.48-33.93-28.33-44.93-38.69-4.08-3.84-7.9-7.95-12.13-11.64h-2.16c-15.89,15.55-32.9,29.92-49.33,44.92-63.66,58.13-198.41,124.04-223.1,133.68-.06.8-.12,1.47.35,2.19,1.06,1.64,27.33,11.77,31.56,13.72,24.62,11.36,48.94,24.25,72.28,38,5.24,3.08,29.93,17.3,31.79,20.79,1.68,3.16,2,8.3,3.52,11.63.12.26,2.41,3.93,2.86,4.63,6.97,10.89,25.59,21.03,38,24.08,5.55,1.37,15.66,1.29,20.01,3.36,6.74,3.2,27.4,21.39,34.07,27.28,4.12,3.64,8.04,7.51,11.71,10.91,3.51,3.26,24.82,25.08,26.65,25.27,1.49.16,2.51-.7,3.63-1.48,6.31-4.46,14.62-15.08,20.81-20.82,25.28-23.47,54.02-45.67,82.47-65.05,1.35-.92,5.88-5.19,6.42-5.34,4.62-1.22,4.74,11.98,4.63,14.93-.18,4.73-2.93,15.72-4.79,20.03-3.45,7.99-21.01,17.18-29.17,19.76-2.12.67-16.77,2.57-10.25,5.08,8.92,3.43,30.19,1.13,38.59-3.77,21.35-12.45,26.9-35.08,25.3-58.66-.24-3.54-2.15-7.24-1.43-10.95.93-4.8,17.71-11.33,22.12-14.4,13.88-9.66,25.72-15.83,40.75-23.52,21.94-11.23,44.57-22.29,67.34-31.99,2.18-.93,8.05-1.6,8.56-4.6.26-1.56-.55-1.1-1.49-1.43ZM484.63,203.34c5.08-1.69,10.63,4.54,12.18,8.8,2.32,6.4,3.43,13.58-5.31,7.5-2.65-1.84-7.51-7.76-8.01-10.97-.22-1.39-.58-4.75,1.15-5.33ZM660.14,297.78c-36.69,17.73-72.48,37.14-106.96,58.86-2.76-.49-2.73-3.65-4.03-5.49-17.36-24.63-44.22-42.37-75.71-41.75-2.92.06-4.58,1.11-3.72,4.31,1.24,4.61,6.93,11.48,8.25,16.6,2.61,2.4,7.22,2.83,9.86,4.02,17.47,7.86,33.49,19.48,43.02,36.43-.27,1.63-20.45,14.29-23.5,16.53-23.09,16.92-47.86,36.65-69.21,55.87-2.6,2.34-13.83,14.6-15.86,14.89l-48.39-41.89c.67-1.05,1.42-1.02,2.52-1.14,6.13-.68,13.45.57,19.74.02,44.24-3.84,104.71-36.23,72.23-88.28-9.39-15.04-27.04-26.44-34.02-42.66-7.17-16.67,1.42-38.47,15.11-49.44,2.62-2.1,15.59-8.68,16.09-9.47,2.16-3.43-5.99-7.37-8.58-8.26-35.18-12.16-100.21,12.92-93.99,58.2,2.21,16.08,40.51,49.03,52.55,62.13,7.51,8.16,12,11.85,10.83,24.03-2.48,25.82-41.49,26.28-60.88,26.75-14.33.35-30.53-.34-42.34-9.5-3.32-2.57-8.98-8.82-8.14-13.16,2.62-13.71,24.5-22.12,36.2-25.95,12.06-2.77,23.63-6.63,35.87-8.68,2.36-3.27-.49-4.5-1.48-6.07-4.26-6.71-6.73-13.96-15.64-13.24-8.38.67-20.84,5.03-29.06,7.45-17.37,5.12-41.98,11.95-52.32,28.02-1.47,2.28-1.11,5.38-4.14,5.39-2.71.01-10.03-5.97-12.87-7.65-26.32-15.6-53.59-30.58-81.21-43.67-1.92-.91-6.7-1.13-7.09-3.87l52.52-26.37c57.93-32.88,113.81-69.8,163.68-113.84,7.24-6.39,14.12-13.33,20.97-20.11,3.81-.98,3.89,2.14,5.67,3.71,6.35,5.57,12.45,11.38,18.89,17.23,2.02,1.84,6,2.86,5.58,6.1-3.26.18-6.6-.24-9.85.01-28.67,2.23-53.09,10.41-74.88,29.56-21.04,18.5-27.46,36.03-20.98,64.09.86,3.72,3.43,7.95,5.01,11.42,5.83,1.17,4.37-8.36,5.51-12.95,7.58-30.69,50.78-44.78,78.77-46.11,18.46-.88,39.63,6.98,55.39,16.17,7.59,4.43,20.62,15.57,27.91,18.1,2.16.75,5.48.98,7.29-.64.55-.49,3.25-7.29,3.25-7.7,0-2.84-.57-10.37,0-12.42.94-3.38,4.28,1.37,4.93,1.84,34.7,24.97,79.94,49.17,118.33,67.71,2.13,1.03,6.64,2.13,8.46,3.12.93.51.44.9.44,1.79Z"/>
</svg>