<?xml version="1.0" encoding="UTF-8"?>
<svg id="Layer_1" xmlns="http://www.w3.org/2000/svg" version="1.1" viewBox="0 0 841.89 595.28">
  <!-- Generator: Adobe Illustrator 29.8.2, SVG Export Plug-In . SVG Version: 2.1.1 Build 3)  -->
  <defs>
    <style>
      .st0 {
        fill: #fdca95;
      }

      .st1 {
        fill: #ed1c24;
      }

      .st2 {
        fill: #f9f8e2;
      }

      .st3 {
        display: none;
      }

      .st3, .st4 {
        fill: #080808;
      }
    </style>
  </defs>
  <rect class="st1" x="2.31" y="1.36" width="839.58" height="593.92"/>
  <path class="st0" d="M693.72,296.18c-27.15-12.25-54.45-23.75-80.6-38.14-3.45-1.9-17.44-9.33-19.18-11.41-1.92-2.3-5.02-12.41-6.01-15.84-2.26-7.77-4.99-19.19-5.62-27.15-.59-7.41.86-16.16.02-23.33-.1-.87-.15-2.21-1.17-2.51-1.43-.41-12.34,8.52-14.66,10.05-8.54,5.61-24.1,13.96-33.86,16.39-2.18.54-4.09.38-5.82-.24,1.7.99,2.64,2.99,5.87.41-.73.73-1.46,2.19-1.46,2.19,20.39,15.3,40.79,28.41,62.64,40.06-21.85-11.65-42.24-24.76-62.64-40.06,0,0,.73-1.46,1.46-2.19-3.23,2.58-4.17.59-5.87-.41-.15-.05-.3-.1-.44-.17-5.29-2.19-8.82-8.78-12.89-12.94-12.78-13.04-18.53-14.34-33.79-22.28-12.43-6.46-33.84-28.25-44.8-38.58-4.06-3.83-7.88-7.93-12.1-11.61h-2.16c-15.85,15.51-32.09,30.66-49.19,44.79-11.21,9.26-22.89,18.69-34.62,27.28-2.53,1.85-18.97,13.75-20.16,14.06-.2.05-.41.09-.62.13-18.15,16.57-40.59,25.3-60.87,41.23-1.46.73-3.64.73-5.1.73,1.46,0,3.64,0,5.1-.73,20.28-15.93,42.71-24.67,60.87-41.23-2.01.37-4.03.03-6-.45-14.75-3.54-32.53-15.6-44.53-24.66-2.3-1.73-3.36-1.57-3.71,1.45-1.28,11,.43,22.21-1.59,34.09-.98,5.75-6.76,28.06-10.27,31.61-4.01,4.05-22.78,13.28-28.96,16.56-23.33,12.39-47.4,23.61-72.02,33.22-.06.8-.12,1.47.35,2.19,1.05,1.63,27.26,11.74,31.47,13.68,24.55,11.33,48.8,24.18,72.08,37.89,5.22,3.07,29.85,17.25,31.7,20.73,1.68,3.15,2,8.28,3.51,11.6.12.26,2.4,3.92,2.85,4.62,6.95,10.86,25.51,20.97,37.89,24.01,5.53,1.36,15.61,1.28,19.96,3.35,6.72,3.19,27.32,21.33,33.97,27.2,4.11,3.63,8.02,7.49,11.68,10.88,3.5,3.25,24.75,25.01,26.57,25.2,1.49.16,2.51-.7,3.62-1.48,6.3-4.45,14.58-15.03,20.75-20.76,25.21-23.4,53.87-45.54,82.24-64.87,1.35-.92,5.86-5.18,6.4-5.32,4.61-1.22,4.73,11.94,4.62,14.89-.17,4.71-2.92,15.68-4.78,19.98-3.44,7.96-20.95,17.13-29.09,19.71-2.12.67-16.73,2.56-10.22,5.07,8.89,3.42,30.11,1.13,38.48-3.76,21.29-12.41,26.82-34.98,25.23-58.5-.24-3.53-2.15-7.21-1.43-10.92.93-4.79,17.66-11.3,22.05-14.36,13.84-9.63,25.65-15.78,40.64-23.45,21.88-11.2,44.44-22.23,67.15-31.89,2.17-.93,8.03-1.59,8.53-4.58.26-1.55-.58-1.02-1.49-1.43ZM484.45,204.12c5.06-1.69,10.6,4.52,12.15,8.77,2.32,6.38,3.42,13.54-5.3,7.48-2.64-1.83-7.49-7.74-7.99-10.94-.22-1.39-.57-4.74,1.14-5.31ZM659.46,298.29c-36.59,17.68-72.28,37.04-106.65,58.69-2.75-.49-2.72-3.64-4.02-5.48-17.31-24.56-44.1-42.25-75.5-41.63-2.91.06-4.56,1.11-3.71,4.3,1.23,4.59,6.91,11.45,8.23,16.55,2.61,2.39,7.2,2.82,9.83,4,17.42,7.84,33.4,19.42,42.9,36.32-.27,1.62-20.39,14.25-23.43,16.48-23.02,16.87-47.72,36.55-69.02,55.71-2.59,2.33-13.79,14.56-15.82,14.84l-48.25-41.77c.67-1.05,1.42-1.02,2.51-1.14,6.12-.68,13.41.57,19.69.02,44.12-3.83,104.42-36.12,72.03-88.02-9.36-15-26.96-26.36-33.93-42.54-7.15-16.62,1.42-38.37,15.07-49.3,2.61-2.09,15.55-8.66,16.04-9.44,2.15-3.42-5.98-7.34-8.55-8.24-35.08-12.12-99.93,12.89-93.72,58.04,2.2,16.03,40.39,48.89,52.41,61.95,7.48,8.14,11.96,11.82,10.8,23.96-2.47,25.75-41.37,26.21-60.71,26.67-14.29.35-30.44-.34-42.22-9.47-3.31-2.56-8.95-8.79-8.12-13.13,2.61-13.67,24.43-22.06,36.09-25.88,12.03-2.76,23.56-6.61,35.77-8.65,2.36-3.26-.49-4.49-1.48-6.05-4.24-6.69-6.71-13.92-15.59-13.2-8.36.67-20.79,5.02-28.98,7.43-17.32,5.1-41.86,11.92-52.17,27.94-1.46,2.27-1.11,5.36-4.13,5.38-2.71.01-10-5.95-12.84-7.63-26.24-15.55-53.44-30.49-80.98-43.55-1.91-.91-6.68-1.13-7.07-3.86l52.37-26.3c57.77-32.79,113.48-69.61,163.22-113.52,7.21-6.37,14.08-13.29,20.91-20.05,3.8-.97,3.88,2.13,5.66,3.69,6.33,5.55,12.42,11.35,18.83,17.18,2.02,1.84,5.98,2.85,5.57,6.08-3.25.18-6.58-.24-9.82.01-28.59,2.23-52.94,10.38-74.66,29.48-20.98,18.45-27.38,35.93-20.92,63.91.86,3.71,3.42,7.93,4.99,11.39,5.82,1.17,4.36-8.33,5.49-12.91,7.56-30.6,50.64-44.65,78.55-45.98,18.41-.88,39.52,6.96,55.23,16.12,7.57,4.41,20.56,15.53,27.83,18.04,2.15.74,5.46.97,7.27-.64.54-.49,3.24-7.27,3.24-7.68,0-2.83-.57-10.34,0-12.38.94-3.37,4.27,1.36,4.92,1.83,34.6,24.9,79.71,49.03,118,67.51,2.12,1.02,6.63,2.13,8.43,3.11.92.5.44.9.43,1.79Z"/>
  <path class="st4" d="M165.45,297.3c80.6-24.09,125.3-64.96,158.75-92.11,41.39-33.6,74.5-56.97,93.47-76.94,9.12-9.6,57.11,76.81,73.2,93.69,22.51,23.61,7.56-26.49,54.89,3.22,77.32,48.54,134.15,56.69,131.96,72.15-1.18,8.35-18.96,10.7-29.22,14.53-117.35,43.83-174.81,119.79-226.41,157.28-4.49,3.27-3.7-3.45-20.31-21.91-27.55-30.61-53.9-51.6-72.23-64.76"/>
  <path class="st3" d="M572.43,214.18c1.29-4.63,5.86,1.87,6.75,2.51,47.51,34.19,109.44,67.32,162.01,92.69,2.91,1.41,9.1,2.92,11.58,4.27,1.27.69.61,1.23.6,2.46-50.24,24.28-99.24,50.85-146.43,80.58-3.78-.67-3.74-4.99-5.52-7.52-23.77-33.72-60.54-58-103.66-57.16-4,.08-6.26,1.53-5.09,5.9,1.69,6.31,9.49,15.71,11.3,22.72,3.58,3.29,9.88,3.87,13.5,5.5,23.92,10.77,45.85,26.67,58.9,49.87-.37,2.23-28,19.57-32.17,22.63-31.61,23.17-65.52,50.18-94.76,76.49-3.56,3.2-18.94,19.99-21.72,20.38l-66.25-57.35c.92-1.44,1.95-1.4,3.45-1.56,8.4-.93,18.41.78,27.03.03,60.57-5.26,143.36-49.59,98.89-120.85-12.85-20.59-37.02-36.19-46.58-58.41s1.94-52.67,20.69-67.69c3.59-2.87,21.35-11.89,22.03-12.97,2.96-4.69-8.2-10.08-11.75-11.31-48.17-16.65-137.2,17.69-128.68,79.68,3.03,22.01,55.46,67.12,71.95,85.06,10.28,11.18,16.42,16.23,14.83,32.89-3.39,35.35-56.81,35.98-83.35,36.62-19.62.48-41.79-.46-57.97-13-4.54-3.52-12.29-12.07-11.15-18.02,3.59-18.77,33.54-30.29,49.56-35.53,16.51-3.79,32.35-9.07,49.11-11.88,3.24-4.48-.67-6.16-2.03-8.31-5.83-9.18-9.22-19.11-21.41-18.13-11.48.92-28.54,6.89-39.78,10.21-23.79,7.01-57.47,16.37-71.63,38.36-2.01,3.12-1.53,7.36-5.67,7.38-3.71.02-13.73-8.17-17.62-10.48-36.03-21.36-73.37-41.86-111.19-59.79-2.62-1.24-9.17-1.55-9.71-5.29l71.9-36.11c79.31-45.01,155.81-95.57,224.09-155.86,9.91-8.75,19.34-18.25,28.7-27.53,5.22-1.34,5.33,2.93,7.77,5.07,8.7,7.63,17.05,15.58,25.86,23.59,2.77,2.52,8.21,3.91,7.64,8.35-4.46.24-9.03-.33-13.48.01-39.26,3.06-72.69,14.25-102.51,40.47-28.81,25.33-37.6,49.32-28.73,87.75,1.17,5.09,4.69,10.88,6.85,15.63,7.99,1.61,5.98-11.44,7.54-17.73,10.38-42.01,69.52-61.31,107.85-63.13,25.27-1.2,54.26,9.56,75.83,22.14,10.39,6.06,28.23,21.32,38.21,24.77,2.96,1.02,7.5,1.34,9.99-.88.75-.67,4.44-9.98,4.44-10.55,0-3.88-.78-14.19,0-17Z"/>
  <path class="st2" d="M694.49,295.66c-55.73-19.43-167.48-93.64-167.37-92.44,1.7,1-3.92-2.92-4.07-2.98-5.31-2.2-5.22-6-9.31-10.17-12.81-13.07-18.58-14.39-33.89-22.35-12.46-6.48-33.93-28.33-44.93-38.69-4.08-3.84-7.9-7.95-12.13-11.64h-2.16c-15.89,15.55-32.9,29.92-49.33,44.92-63.66,58.13-198.41,124.04-223.1,133.68-.06.8-.12,1.47.35,2.19,1.06,1.64,27.33,11.77,31.56,13.72,24.62,11.36,48.94,24.25,72.28,38,5.24,3.08,29.93,17.3,31.79,20.79,1.68,3.16,2,8.3,3.52,11.63.12.26,2.41,3.93,2.86,4.63,6.97,10.89,25.59,21.03,38,24.08,5.55,1.37,15.66,1.29,20.01,3.36,6.74,3.2,27.4,21.39,34.07,27.28,4.12,3.64,8.04,7.51,11.71,10.91,3.51,3.26,24.82,25.08,26.65,25.27,1.49.16,2.51-.7,3.63-1.48,6.31-4.46,14.62-15.08,20.81-20.82,25.28-23.47,54.02-45.67,82.47-65.05,1.35-.92,5.88-5.19,6.42-5.34,4.62-1.22,4.74,11.98,4.63,14.93-.18,4.73-2.93,15.72-4.79,20.03-3.45,7.99-21.01,17.18-29.17,19.76-2.12.67-16.77,2.57-10.25,5.08,8.92,3.43,30.19,1.13,38.59-3.77,21.35-12.45,26.9-35.08,25.3-58.66-.24-3.54-2.15-7.24-1.43-10.95.93-4.8,17.71-11.33,22.12-14.4,13.88-9.66,25.72-15.83,40.75-23.52,21.94-11.23,44.57-22.29,67.34-31.99,2.18-.93,8.05-1.6,8.56-4.6.26-1.56-.55-1.1-1.49-1.43ZM484.63,203.34c5.08-1.69,10.63,4.54,12.18,8.8,2.32,6.4,3.43,13.58-5.31,7.5-2.65-1.84-7.51-7.76-8.01-10.97-.22-1.39-.58-4.75,1.15-5.33ZM660.14,297.78c-36.69,17.73-72.48,37.14-106.96,58.86-2.76-.49-2.73-3.65-4.03-5.49-17.36-24.63-44.22-42.37-75.71-41.75-2.92.06-4.58,1.11-3.72,4.31,1.24,4.61,6.93,11.48,8.25,16.6,2.61,2.4,7.22,2.83,9.86,4.02,17.47,7.86,33.49,19.48,43.02,36.43-.27,1.63-20.45,14.29-23.5,16.53-23.09,16.92-47.86,36.65-69.21,55.87-2.6,2.34-13.83,14.6-15.86,14.89l-48.39-41.89c.67-1.05,1.42-1.02,2.52-1.14,6.13-.68,13.45.57,19.74.02,44.24-3.84,104.71-36.23,72.23-88.28-9.39-15.04-27.04-26.44-34.02-42.66-7.17-16.67,1.42-38.47,15.11-49.44,2.62-2.1,15.59-8.68,16.09-9.47,2.16-3.43-5.99-7.37-8.58-8.26-35.18-12.16-100.21,12.92-93.99,58.2,2.21,16.08,40.51,49.03,52.55,62.13,7.51,8.16,12,11.85,10.83,24.03-2.48,25.82-41.49,26.28-60.88,26.75-14.33.35-30.53-.34-42.34-9.5-3.32-2.57-8.98-8.82-8.14-13.16,2.62-13.71,24.5-22.12,36.2-25.95,12.06-2.77,23.63-6.63,35.87-8.68,2.36-3.27-.49-4.5-1.48-6.07-4.26-6.71-6.73-13.96-15.64-13.24-8.38.67-20.84,5.03-29.06,7.45-17.37,5.12-41.98,11.95-52.32,28.02-1.47,2.28-1.11,5.38-4.14,5.39-2.71.01-10.03-5.97-12.87-7.65-26.32-15.6-53.59-30.58-81.21-43.67-1.92-.91-6.7-1.13-7.09-3.87l52.52-26.37c57.93-32.88,113.81-69.8,163.68-113.84,7.24-6.39,14.12-13.33,20.97-20.11,3.81-.98,3.89,2.14,5.67,3.71,6.35,5.57,12.45,11.38,18.89,17.23,2.02,1.84,6,2.86,5.58,6.1-3.26.18-6.6-.24-9.85.01-28.67,2.23-53.09,10.41-74.88,29.56-21.04,18.5-27.46,36.03-20.98,64.09.86,3.72,3.43,7.95,5.01,11.42,5.83,1.17,4.37-8.36,5.51-12.95,7.58-30.69,50.78-44.78,78.77-46.11,18.46-.88,39.63,6.98,55.39,16.17,7.59,4.43,20.62,15.57,27.91,18.1,2.16.75,5.48.98,7.29-.64.55-.49,3.25-7.29,3.25-7.7,0-2.84-.57-10.37,0-12.42.94-3.38,4.28,1.37,4.93,1.84,34.7,24.97,79.94,49.17,118.33,67.71,2.13,1.03,6.64,2.13,8.46,3.12.93.51.44.9.44,1.79Z"/>
</svg>